<svg width="25" height="25" viewBox="0 0 25 25" fill="none" xmlns="http://www.w3.org/2000/svg">
<path d="M1.5625 12.5C1.5625 14.6632 2.20397 16.7779 3.4058 18.5765C4.60763 20.3752 6.31583 21.7771 8.3144 22.6049C10.313 23.4328 12.5121 23.6494 14.6338 23.2273C16.7555 22.8053 18.7043 21.7636 20.234 20.234C21.7636 18.7043 22.8053 16.7555 23.2273 14.6338C23.6494 12.5121 23.4328 10.313 22.6049 8.3144C21.7771 6.31583 20.3752 4.60763 18.5765 3.4058C16.7779 2.20397 14.6632 1.5625 12.5 1.5625C9.59919 1.5625 6.8172 2.71484 4.76602 4.76602C2.71484 6.8172 1.5625 9.59919 1.5625 12.5ZM6.25 11.7188H15.7422L11.3828 7.33828L12.5 6.25L18.75 12.5L12.5 18.75L11.3828 17.6352L15.7422 13.2812H6.25V11.7188Z" fill="white"/>
</svg>
