<svg width="38" height="38" viewBox="0 0 38 38" fill="none" xmlns="http://www.w3.org/2000/svg">
<path d="M0.666992 35.6667C0.666992 36.5667 1.41699 37.3333 2.33366 37.3333H24.0003C24.9337 37.3333 25.667 36.5667 25.667 35.6667V34H0.666992V35.6667ZM13.167 14C6.91699 14 0.666992 17.3333 0.666992 24H25.667C25.667 17.3333 19.417 14 13.167 14ZM5.03366 20.6667C6.88366 18.0833 10.817 17.3333 13.167 17.3333C15.517 17.3333 19.4503 18.0833 21.3003 20.6667H5.03366ZM0.666992 27.3333H25.667V30.6667H0.666992V27.3333ZM29.0003 7.33333V0.666664H25.667V7.33333H17.3337L17.717 10.6667H33.6503L31.317 34H29.0003V37.3333H31.867C33.267 37.3333 34.417 36.25 34.5837 34.8833L37.3337 7.33333H29.0003Z" fill="white"/>
</svg>
