<svg width="40" height="40" viewBox="0 0 40 40" fill="none" xmlns="http://www.w3.org/2000/svg">
<g clip-path="url(#clip0_90_208)">
<g clip-path="url(#clip1_90_208)">
<path d="M31.6667 8.33333V31.6667H8.33333V8.33333H31.6667ZM33.5 5H6.5C5.66667 5 5 5.66667 5 6.5V33.5C5 34.1667 5.66667 35 6.5 35H33.5C34.1667 35 35 34.1667 35 33.5V6.5C35 5.66667 34.1667 5 33.5 5ZM18.3333 11.6667H28.3333V15H18.3333V11.6667ZM18.3333 18.3333H28.3333V21.6667H18.3333V18.3333ZM18.3333 25H28.3333V28.3333H18.3333V25ZM11.6667 11.6667H15V15H11.6667V11.6667ZM11.6667 18.3333H15V21.6667H11.6667V18.3333ZM11.6667 25H15V28.3333H11.6667V25Z" fill="white"/>
</g>
</g>
<defs>
<clipPath id="clip0_90_208">
<rect width="40" height="40" fill="white"/>
</clipPath>
<clipPath id="clip1_90_208">
<rect width="40" height="40" fill="white"/>
</clipPath>
</defs>
</svg>
