<svg width="90" height="90" viewBox="0 0 90 90" fill="none" xmlns="http://www.w3.org/2000/svg">
<g clip-path="url(#clip0_88_160)">
<g clip-path="url(#clip1_88_160)">
<path d="M71.25 18.75V71.25H18.75V18.75H71.25ZM75.375 11.25H14.625C12.75 11.25 11.25 12.75 11.25 14.625V75.375C11.25 76.875 12.75 78.75 14.625 78.75H75.375C76.875 78.75 78.75 76.875 78.75 75.375V14.625C78.75 12.75 76.875 11.25 75.375 11.25ZM41.25 26.25H63.75V33.75H41.25V26.25ZM41.25 41.25H63.75V48.75H41.25V41.25ZM41.25 56.25H63.75V63.75H41.25V56.25ZM26.25 26.25H33.75V33.75H26.25V26.25ZM26.25 41.25H33.75V48.75H26.25V41.25ZM26.25 56.25H33.75V63.75H26.25V56.25Z" fill="#6B6868"/>
</g>
</g>
<defs>
<clipPath id="clip0_88_160">
<rect width="90" height="90" fill="white"/>
</clipPath>
<clipPath id="clip1_88_160">
<rect width="90" height="90" fill="white"/>
</clipPath>
</defs>
</svg>
