<svg width="89" height="89" viewBox="0 0 89 89" fill="none" xmlns="http://www.w3.org/2000/svg">
<path d="M3.70801 81.5833C3.70801 83.5858 5.37676 85.2917 7.41634 85.2917H55.6247C57.7013 85.2917 59.333 83.5858 59.333 81.5833V77.875H3.70801V81.5833ZM31.5205 33.375C17.6143 33.375 3.70801 40.7917 3.70801 55.625H59.333C59.333 40.7917 45.4268 33.375 31.5205 33.375ZM13.4238 48.2083C17.5401 42.4604 26.2918 40.7917 31.5205 40.7917C36.7493 40.7917 45.5009 42.4604 49.6172 48.2083H13.4238ZM3.70801 63.0417H59.333V70.4583H3.70801V63.0417ZM66.7497 18.5417V3.70833H59.333V18.5417H40.7913L41.6443 25.9583H77.0959L71.9043 77.875H66.7497V85.2917H73.128C76.243 85.2917 78.8018 82.8812 79.1726 79.8404L85.2913 18.5417H66.7497Z" fill="#6B6868"/>
</svg>
