<svg width="90" height="90" viewBox="0 0 90 90" fill="none" xmlns="http://www.w3.org/2000/svg">
<g clip-path="url(#clip0_88_172)">
<g clip-path="url(#clip1_88_172)">
<g opacity="0.2">
<path d="M45 56.25C51.2132 56.25 56.25 51.2132 56.25 45C56.25 38.7868 51.2132 33.75 45 33.75C38.7868 33.75 33.75 38.7868 33.75 45C33.75 51.2132 38.7868 56.25 45 56.25Z" fill="#6B6868"/>
<path d="M81.5625 22.5H61.875L84.375 42.1875V25.3125C84.375 24.5666 84.0787 23.8512 83.5512 23.3238C83.0238 22.7963 82.3084 22.5 81.5625 22.5ZM81.5625 67.5C82.3084 67.5 83.0238 67.2037 83.5512 66.6762C84.0787 66.1488 84.375 65.4334 84.375 64.6875V47.8125L61.875 67.5H81.5625ZM5.625 25.3125V42.1875L28.125 22.5H8.4375C7.69158 22.5 6.97621 22.7963 6.44876 23.3238C5.92132 23.8512 5.625 24.5666 5.625 25.3125ZM5.625 64.6875C5.625 65.4334 5.92132 66.1488 6.44876 66.6762C6.97621 67.2037 7.69158 67.5 8.4375 67.5H28.125L5.625 47.8125V64.6875Z" fill="#6B6868"/>
</g>
<path d="M81.5625 19.6875H8.4375C6.94566 19.6875 5.51492 20.2801 4.46002 21.335C3.40513 22.3899 2.8125 23.8207 2.8125 25.3125V64.6875C2.8125 66.1793 3.40513 67.6101 4.46002 68.665C5.51492 69.7199 6.94566 70.3125 8.4375 70.3125H81.5625C83.0543 70.3125 84.4851 69.7199 85.54 68.665C86.5949 67.6101 87.1875 66.1793 87.1875 64.6875V25.3125C87.1875 23.8207 86.5949 22.3899 85.54 21.335C84.4851 20.2801 83.0543 19.6875 81.5625 19.6875ZM29.1797 64.6875L8.4375 46.5469V43.4531L29.1797 25.3125H60.8203L81.5625 43.4531V46.5469L60.8203 64.6875H29.1797ZM81.5625 36L69.3633 25.3125H81.5625V36ZM20.6367 25.3125L8.4375 36V25.3125H20.6367ZM8.4375 54L20.6367 64.6875H8.4375V54ZM81.5625 64.6875H69.3633L81.5625 54V64.6875ZM45 30.9375C42.2187 30.9375 39.4999 31.7623 37.1873 33.3075C34.8747 34.8527 33.0723 37.0489 32.0079 39.6185C30.9436 42.1881 30.6651 45.0156 31.2077 47.7435C31.7503 50.4713 33.0896 52.977 35.0563 54.9437C37.023 56.9104 39.5287 58.2497 42.2565 58.7923C44.9844 59.3349 47.8119 59.0564 50.3815 57.9921C52.9511 56.9277 55.1473 55.1253 56.6925 52.8127C58.2378 50.5001 59.0625 47.7813 59.0625 45C59.0625 41.2704 57.5809 37.6935 54.9437 35.0563C52.3065 32.4191 48.7296 30.9375 45 30.9375ZM45 53.4375C43.3312 53.4375 41.6999 52.9426 40.3124 52.0155C38.9248 51.0884 37.8434 49.7706 37.2048 48.2289C36.5662 46.6871 36.3991 44.9906 36.7246 43.3539C37.0502 41.7172 37.8538 40.2138 39.0338 39.0338C40.2138 37.8538 41.7172 37.0502 43.3539 36.7246C44.9906 36.3991 46.6871 36.5662 48.2289 37.2048C49.7706 37.8434 51.0884 38.9248 52.0155 40.3124C52.9426 41.6999 53.4375 43.3312 53.4375 45C53.4282 47.2349 52.5363 49.3757 50.956 50.956C49.3757 52.5363 47.2349 53.4282 45 53.4375Z" fill="#6B6868"/>
</g>
</g>
<defs>
<clipPath id="clip0_88_172">
<rect width="90" height="90" fill="white"/>
</clipPath>
<clipPath id="clip1_88_172">
<rect width="90" height="90" fill="white"/>
</clipPath>
</defs>
</svg>
